<?xml version="1.0" encoding="UTF-8" standalone="no"?>
<!-- Created with Inkscape (http://www.inkscape.org/) -->

<svg
   version="1.1"
   id="svg2"
   width="1551.1467"
   height="353.89334"
   viewBox="0 0 1551.1467 353.89334"
   sodipodi:docname="logoCENTRO.eps"
   xmlns:inkscape="http://www.inkscape.org/namespaces/inkscape"
   xmlns:sodipodi="http://sodipodi.sourceforge.net/DTD/sodipodi-0.dtd"
   xmlns="http://www.w3.org/2000/svg"
   xmlns:svg="http://www.w3.org/2000/svg">
  <defs
     id="defs6" />
  <sodipodi:namedview
     id="namedview4"
     pagecolor="#ffffff"
     bordercolor="#000000"
     borderopacity="0.25"
     inkscape:showpageshadow="2"
     inkscape:pageopacity="0.0"
     inkscape:pagecheckerboard="0"
     inkscape:deskcolor="#d1d1d1" />
  <g
     id="g8"
     inkscape:groupmode="layer"
     inkscape:label="ink_ext_XXXXXX"
     transform="matrix(1.3333333,0,0,-1.3333333,0,353.89333)">
    <g
       id="g10"
       transform="scale(0.1)">
      <path
         d="m 11479.1,266.43 c 0,191.34 0,371.058 0,549.09 -189.5,0 -372.6,0 -556.5,0 0,-184.79 0,-360.911 0,-538.071 15.6,-4.5 26.9,-10.558 38.2,-10.597 169.4,-0.61 338.8,-0.422 518.3,-0.422 z M 8646.94,1670.81 c 0,145.28 0,284.69 0,446.98 -107.66,-26.84 -212.04,-37.23 -301.37,-79.48 -91.68,-43.36 -168.64,-117.86 -258.21,-183.22 0,65.44 0,129.71 0,197.75 -154.44,0 -300.51,0 -443.57,0 0,-607.29 0,-1207.66 0,-1803.668 150.66,0 292.9,0 441.44,0 0,308.777 -2.54,609.617 0.81,910.388 2.62,234.76 115.3,386.16 339.3,460.65 69.73,23.19 143.83,33.26 221.6,50.6 z m -1725.08,349.42 c 0,145.74 0,275.47 0,400.29 -153.97,0 -295.81,0 -446.13,0 0,-131.18 0,-253.45 0,-385.69 -89.47,0 -170.19,0 -253.7,0 0,-107.87 0,-205.25 0,-313.95 85.28,0 165.76,0 256.82,0 0,-92.61 -0.86,-174.24 0.15,-255.85 3.94,-317.62 2.7,-635.46 15.26,-952.741 6.17,-155.84 102.19,-257.258 254.21,-296.738 191.35,-49.699 380.98,-26.66 568.08,13.711 0,123.136 0,237.277 0,352.797 -42.79,-4.911 -78.88,-9.817 -115.12,-13.09 -217.46,-19.668 -273.98,31.562 -275,252.191 -0.99,214.68 -0.22,429.36 -0.22,644.05 0,80.43 0,160.86 0,248.21 142.06,0 264.73,0 390.69,0 0,104.22 0,201 0,306.81 -128.3,0 -250.73,0 -395.04,0 z M 2103.54,1591.41 C 1874.57,2025.52 1392.47,2212.75 894.113,2065.5 437.77,1930.67 178.406,1535.48 221.996,1041.39 261.023,599.031 623.73,256.48 1109.17,203.531 1570.27,153.238 1997.38,388.27 2121.94,765.148 2000.76,822.73 1878.98,880.582 1758.4,937.871 1506.69,571.18 1191.53,486.832 910.738,705.512 661.883,899.32 630.887,1284.71 846.957,1520.96 c 105.758,115.64 238.673,172.35 396.233,172.06 216.83,-0.41 369.79,-112.96 486.84,-282.62 129.6,62.8 251.47,121.86 373.51,181.01 z M 4392.41,249.422 c 154.73,0 297.17,0 443.93,0 0,325.91 -3.87,643.648 2.5,961.198 1.77,88.14 19.57,182.02 55.07,262.17 77.21,174.31 270.42,254.45 468.93,211.34 155.13,-33.69 242,-165.07 242.74,-369.09 0.63,-173.56 0.13,-347.118 0.13,-520.681 0,-180.089 0,-360.179 0,-538.461 153.1,0 290.98,0 424.5,0 0,461.903 7.57,915.922 -3.39,1369.492 -5.02,207.57 -125.63,357.81 -326.12,422.7 -308.9,99.98 -599.5,70.92 -865.38,-171.35 0,71.26 0,125.37 0,176.28 -155.49,0 -298.22,0 -442.91,0 0,-604.34 0,-1201.961 0,-1803.598 z m -220.99,380.91 c -125.48,70.859 -243.32,137.406 -362,204.438 -223.17,-231.661 -488.8,-307.008 -790.19,-197.321 -175.53,63.891 -274.07,202.633 -289.55,403.751 241.33,0 476.55,0 711.77,0 233.69,0 467.39,0 709.92,0 -12.41,103.34 -19.53,189.75 -33.56,275.02 -97.98,595.46 -640.3,923.49 -1207.16,731.35 C 2495,1906.68 2222.02,1458.69 2285.38,1021.42 2353.76,549.531 2704.01,218.809 3161.57,192.609 3569.7,169.25 3917.69,281.59 4171.42,630.332 Z m 5583.3,-442.801 c 257.48,-1.59 491.98,67.68 684.98,240.949 306,274.668 379.1,623.03 270.4,1004.91 -104.8,367.91 -370.5,580.49 -741.25,645.85 -409.65,72.21 -779.58,-17.17 -1038.83,-364.97 -235.88,-316.45 -250.85,-672.11 -72.68,-1017.09 183.75,-355.77 505.19,-504.141 897.38,-509.649 z M 0,0 c 0,884.711 0,1769.43 0,2654.15 3877.87,0 7755.74,0 11633.6,0 0,-884.72 0,-1769.431 0,-2654.15 C 7755.75,0 3877.87,0 0,0"
         style="fill:#ffffff;fill-opacity:1;fill-rule:nonzero;stroke:none"
         id="path12" />
      <path
         d="m 9754.89,1692.46 c -299.16,1.43 -536.5,-241.32 -535.26,-547.44 1.28,-315.918 226.33,-551.918 527.63,-553.34 290.44,-1.371 540.04,246.289 538.44,534.2 -1.7,324.35 -227.3,565.14 -530.81,566.58 z m -0.17,-1504.929 c -392.19,5.508 -713.63,153.879 -897.38,509.649 -178.17,344.98 -163.2,700.64 72.68,1017.09 259.25,347.8 629.18,437.18 1038.83,364.97 370.75,-65.36 636.45,-277.94 741.25,-645.85 108.7,-381.88 35.6,-730.242 -270.4,-1004.91 -193,-173.269 -427.5,-242.539 -684.98,-240.949"
         style="fill:#040606;fill-opacity:1;fill-rule:nonzero;stroke:none"
         id="path14" />
      <path
         d="m 2756.17,1388.78 c 311.65,0 622.72,0 935.13,0 -46.17,221.5 -229.62,365.53 -454.45,362.41 -240.75,-3.34 -445.14,-156.27 -480.68,-362.41 z M 4171.42,630.332 C 3917.69,281.59 3569.7,169.25 3161.57,192.609 c -457.56,26.2 -807.81,356.922 -876.19,828.811 -63.36,437.27 209.62,885.26 625.27,1026.15 566.86,192.14 1109.18,-135.89 1207.16,-731.35 14.03,-85.27 21.15,-171.68 33.56,-275.02 -242.53,0 -476.23,0 -709.92,0 -235.22,0 -470.44,0 -711.77,0 15.48,-201.118 114.02,-339.86 289.55,-403.751 301.39,-109.687 567.02,-34.34 790.19,197.321 118.68,-67.032 236.52,-133.579 362,-204.438"
         style="fill:#040606;fill-opacity:1;fill-rule:nonzero;stroke:none"
         id="path16" />
      <path
         d="m 4392.41,249.422 c 0,601.637 0,1199.258 0,1803.598 144.69,0 287.42,0 442.91,0 0,-50.91 0,-105.02 0,-176.28 265.88,242.27 556.48,271.33 865.38,171.35 200.49,-64.89 321.1,-215.13 326.12,-422.7 10.96,-453.57 3.39,-907.589 3.39,-1369.492 -133.52,0 -271.4,0 -424.5,0 0,178.282 0,358.372 0,538.461 0,173.563 0.5,347.121 -0.13,520.681 -0.74,204.02 -87.61,335.4 -242.74,369.09 -198.51,43.11 -391.72,-37.03 -468.93,-211.34 -35.5,-80.15 -53.3,-174.03 -55.07,-262.17 -6.37,-317.55 -2.5,-635.288 -2.5,-961.198 -146.76,0 -289.2,0 -443.93,0"
         style="fill:#040606;fill-opacity:1;fill-rule:nonzero;stroke:none"
         id="path18" />
      <path
         d="M 2103.54,1591.41 C 1981.5,1532.26 1859.63,1473.2 1730.03,1410.4 1612.98,1580.06 1460.02,1692.61 1243.19,1693.02 1085.63,1693.31 952.715,1636.6 846.957,1520.96 630.887,1284.71 661.883,899.32 910.738,705.512 1191.53,486.832 1506.69,571.18 1758.4,937.871 1878.98,880.582 2000.76,822.73 2121.94,765.148 1997.38,388.27 1570.27,153.238 1109.17,203.531 623.73,256.48 261.023,599.031 221.996,1041.39 c -43.59,494.09 215.774,889.28 672.117,1024.11 498.357,147.25 980.457,-39.98 1209.427,-474.09"
         style="fill:#040606;fill-opacity:1;fill-rule:nonzero;stroke:none"
         id="path20" />
      <path
         d="m 6921.86,2020.23 c 144.31,0 266.74,0 395.04,0 0,-105.81 0,-202.59 0,-306.81 -125.96,0 -248.63,0 -390.69,0 0,-87.35 0,-167.78 0,-248.21 0,-214.69 -0.77,-429.37 0.22,-644.05 1.02,-220.629 57.54,-271.859 275,-252.191 36.24,3.273 72.33,8.179 115.12,13.09 0,-115.52 0,-229.661 0,-352.797 -187.1,-40.371 -376.73,-63.41 -568.08,-13.711 -152.02,39.48 -248.04,140.898 -254.21,296.738 -12.56,317.281 -11.32,635.121 -15.26,952.741 -1.01,81.61 -0.15,163.24 -0.15,255.85 -91.06,0 -171.54,0 -256.82,0 0,108.7 0,206.08 0,313.95 83.51,0 164.23,0 253.7,0 0,132.24 0,254.51 0,385.69 150.32,0 292.16,0 446.13,0 0,-124.82 0,-254.55 0,-400.29"
         style="fill:#040606;fill-opacity:1;fill-rule:nonzero;stroke:none"
         id="path22" />
      <path
         d="m 8646.94,1670.81 c -77.77,-17.34 -151.87,-27.41 -221.6,-50.6 -224,-74.49 -336.68,-225.89 -339.3,-460.65 -3.35,-300.771 -0.81,-601.611 -0.81,-910.388 -148.54,0 -290.78,0 -441.44,0 0,596.008 0,1196.378 0,1803.668 143.06,0 289.13,0 443.57,0 0,-68.04 0,-132.31 0,-197.75 89.57,65.36 166.53,139.86 258.21,183.22 89.33,42.25 193.71,52.64 301.37,79.48 0,-162.29 0,-301.7 0,-446.98"
         style="fill:#040606;fill-opacity:1;fill-rule:nonzero;stroke:none"
         id="path24" />
      <path
         d="m 11479.1,266.43 c -179.5,0 -348.9,-0.188 -518.3,0.422 -11.3,0.039 -22.6,6.097 -38.2,10.597 0,177.16 0,353.281 0,538.071 183.9,0 367,0 556.5,0 0,-178.032 0,-357.75 0,-549.09"
         style="fill:#040606;fill-opacity:1;fill-rule:nonzero;stroke:none"
         id="path26" />
      <path
         d="m 9754.89,1692.46 c 303.51,-1.44 529.11,-242.23 530.81,-566.58 1.6,-287.911 -248,-535.571 -538.44,-534.2 -301.3,1.422 -526.35,237.422 -527.63,553.34 -1.24,306.12 236.1,548.87 535.26,547.44"
         style="fill:#ffffff;fill-opacity:1;fill-rule:nonzero;stroke:none"
         id="path28" />
      <path
         d="m 2756.17,1388.78 c 35.54,206.14 239.93,359.07 480.68,362.41 224.83,3.12 408.28,-140.91 454.45,-362.41 -312.41,0 -623.48,0 -935.13,0"
         style="fill:#ffffff;fill-opacity:1;fill-rule:nonzero;stroke:none"
         id="path30" />
    </g>
  </g>
</svg>
